<svg xmlns="http://www.w3.org/2000/svg" xmlns:xlink="http://www.w3.org/1999/xlink" viewBox="0 0 576 242.97"><defs><style>.cls-1{fill:url(#linear-gradient);}.cls-2{fill:#95cd2d;}.cls-3{fill:#12a6cc;}.cls-4,.cls-5,.cls-7{fill:#fff;}.cls-5{font-size:34.42px;font-family:Poppins-SemiBoldItalic, Poppins;font-weight:600;font-style:italic;letter-spacing:0.25em;}.cls-6{opacity:0.3;fill:url(#linear-gradient-2);}.cls-7{font-size:14.22px;font-family:Poppins-Regular, Poppins;letter-spacing:0.24em;}</style><linearGradient id="linear-gradient" x1="32.87" y1="58.33" x2="195.32" y2="208.77" gradientUnits="userSpaceOnUse"><stop offset="0" stop-color="#36a4d0"/><stop offset="0.7" stop-color="#004252"/></linearGradient><linearGradient id="linear-gradient-2" x1="302.59" y1="230.01" x2="569.65" y2="230.01" gradientUnits="userSpaceOnUse"><stop offset="0" stop-color="#0f1321" stop-opacity="0"/><stop offset="0.16" stop-color="#41444f" stop-opacity="0.21"/><stop offset="0.39" stop-color="#84868d" stop-opacity="0.49"/><stop offset="0.6" stop-color="#b9babe" stop-opacity="0.71"/><stop offset="0.78" stop-color="#dfdfe1" stop-opacity="0.87"/><stop offset="0.92" stop-color="#f6f7f7" stop-opacity="0.96"/><stop offset="1" stop-color="#fff"/></linearGradient></defs><g id="Layer_2" data-name="Layer 2"><g id="Layer_1-2" data-name="Layer 1"><path class="cls-1" d="M23.38,65.75c-4.29.86-7.56,4-8.11,7.8a7,7,0,0,0,5.87,7.86l22.27,3.27v0l20.05,2.94a7.24,7.24,0,0,1-1.25,14.41l-13.92-2-7-1v0L33.42,98a7.26,7.26,0,1,0-2.09,14.36l13.38,1.89,9.71,1.43A7.25,7.25,0,0,1,54,130.1L17.82,125a7.26,7.26,0,0,0-2.08,14.37l19.31,2.72-5.44,37.33,156.57,25L202.12,91C99.13,99.42,133.91,74.9,23.38,65.75Z"/><polygon class="cls-2" points="241.67 58.91 203.78 62.76 179.15 179.63 0 164.78 14.36 198.25 198.47 210.54 222.38 73.13 239.64 74.15 241.67 58.91"/><path class="cls-3" d="M78.09,208.83a25.45,25.45,0,1,0-21.3,29A25.45,25.45,0,0,0,78.09,208.83ZM54.36,222a9.43,9.43,0,1,1,7.9-10.75A9.43,9.43,0,0,1,54.36,222Z"/><path class="cls-3" d="M160.58,216.34a21.14,21.14,0,1,0-17.69,24.11A21.14,21.14,0,0,0,160.58,216.34ZM141,228.14a8.7,8.7,0,1,1,7.28-9.91A8.7,8.7,0,0,1,141,228.14Z"/><path class="cls-2" d="M201.43,14.68A82,82,0,0,0,173.07,2.16,79.1,79.1,0,0,0,148.39.28c-.67.06-1.66.38-1.9.88-1.32,2.75-2.88,9.47-2.88,9.47h0a37.38,37.38,0,0,1,12.74-2.14c1.22,0,23,2.8,32.46,7.45.36.17.75.36,1.14.59-1.15,1.87-2,3.27-2.86,4.69-4.72,8-8.5,16.41-10.13,25.64-2.08,11.72-.49,22.79,6.1,32.93.37.57.65,1.21,1,1.81C173.93,70.8,169.59,58,170.73,43.3a65.25,65.25,0,0,1,7.58-25.36c1-1.93,1-2-1.09-2.59q-2.39-.72-4.81-1.27a81.32,81.32,0,0,0-29.62-1.24,78.2,78.2,0,0,0-20.13,5.52A2.36,2.36,0,0,0,121,20.6c-.15,2.55-.53,8.59-.47,9.34,0-.28,3.73-2.35,4.2-2.65,4.83-3.07,11-4.77,16.56-6A66.89,66.89,0,0,1,160,20.12c1.91.13,3.81.32,5.7.55,1.51.19,1.43.91,1.14,2.07-2.55,10.15-3.83,20.4-2.36,30.88a47.05,47.05,0,0,0,7.9,20.6,51.11,51.11,0,0,0,10,10.16,11.12,11.12,0,0,1-1.23-.53A47.86,47.86,0,0,1,161.1,62.42c-5.46-11.61-6.42-23.82-4.46-36.36.42-2.66.44-2.65-2.31-2.52A81.25,81.25,0,0,0,133,27.32a83.69,83.69,0,0,0-28.9,16.08,2.77,2.77,0,0,0-1,3.15c.91,3.34,1.65,6.74,2.7,10,2.31,7.24,5.58,14,10.84,19.62a29.14,29.14,0,0,0,6.17,5.12,21.48,21.48,0,0,0,2.32,1.23c.41.19.81.39,1.22.56a4.26,4.26,0,0,0,1.84.29c.11,0,.5-.12.6-.06a18.83,18.83,0,0,1-3.62-2.76c-1-1-1.72-1.92-2.71-3a.86.86,0,0,1-.13-.14l-.06-.07q-.45-.5-.87-1c-5.09-6.54-7.56-14.22-8.89-22.29-.94-5.61-1.83-4.42,3.27-8.73,8.47-7.17,18.6-10.75,29.3-13,1.83-.38,2-.14,2.24,1.74.62,4.67,1.06,9.39,2,14a59,59,0,0,0,9.42,22.49c7.41,10.48,17.43,16.71,30.22,18.34a9.81,9.81,0,0,0,1.21.06l1.89,0s-1.35-1.74-1.84-2.51-1.11-1.49-1.57-2.3a37.6,37.6,0,0,1-2-4,55.24,55.24,0,0,1-2.83-8.58c-.18-.7-.35-1.39-.51-2.09a47.2,47.2,0,0,1,.26-22.66c3-11.65,9.35-21.34,18-29.59C203,15.85,203,15.77,201.43,14.68ZM184.79,85.79l-.35-.24h0l.34.24Z"/><path class="cls-3" d="M149.3,69.12A6.12,6.12,0,0,1,147,72.47a8.8,8.8,0,0,1-4.13,1.65l1.28,2.5-2,.06L141,74.31a10.71,10.71,0,0,1-5.22-1.1,7.66,7.66,0,0,1-3.27-3.08l2.33-.67a5.79,5.79,0,0,0,2,1.88,5.48,5.48,0,0,0,3,.71l-4.2-8a19.88,19.88,0,0,1-3.54.3,5,5,0,0,1-2.49-.79A6.64,6.64,0,0,1,127.3,61a9.2,9.2,0,0,1-1.21-5.08,10.63,10.63,0,0,1,2.15-5.82l-1.74-3.3,1.34-2,1.82,3.53a8,8,0,0,1,5.87-2.8c2.25.06,4.19,1.3,5.65,3.7l-4.34,3.48a4.32,4.32,0,0,0-2.53-1.8,3.8,3.8,0,0,0-3,.59l4.81,9.38a32.53,32.53,0,0,1,4.73-.79,8.72,8.72,0,0,1,4.44.84,7.62,7.62,0,0,1,3.63,4A6.27,6.27,0,0,1,149.3,69.12ZM131.1,61.3a6.34,6.34,0,0,0,3,0L129.75,53a6.05,6.05,0,0,0-1.37,3.18,5.4,5.4,0,0,0,.74,3.21A3.68,3.68,0,0,0,131.1,61.3Zm13.29,8.5a3.56,3.56,0,0,0-.07-3.28,4.49,4.49,0,0,0-2.74-2.47,9.78,9.78,0,0,0-4-.25l4.09,8A4.11,4.11,0,0,0,144.39,69.8Z"/><path class="cls-4" d="M276.21,165.81A23.06,23.06,0,0,1,265.85,172a14.15,14.15,0,0,1,8.53,5.29,15.4,15.4,0,0,1,3.13,9.6,16.77,16.77,0,0,1-.33,3.35,22.53,22.53,0,0,1-9.28,15.05q-7.66,5.56-19.53,5.56H213.08l13.38-75.76h34.11q10.24,0,15.86,4.21A13.76,13.76,0,0,1,282,150.91a23.53,23.53,0,0,1-.32,3.78A20.72,20.72,0,0,1,276.21,165.81Zm-17.16,20a5.91,5.91,0,0,0-2.26-4.91,9.88,9.88,0,0,0-6.26-1.78H237.15l-3,17h13.59a12.08,12.08,0,0,0,7.56-2.16,9.8,9.8,0,0,0,3.56-6.26A13.28,13.28,0,0,0,259.05,185.77Zm-.1-22a8.8,8.8,0,0,0,3.45-5.94,11.19,11.19,0,0,0,.11-1.73,5.87,5.87,0,0,0-2.05-4.8c-1.37-1.11-3.38-1.67-6-1.67H242.33l-2.81,16.19h12A12.41,12.41,0,0,0,259,163.76Z"/><path class="cls-4" d="M333.73,197.42H305.46l-6.91,13.39H279.23L320,135.05h21.36l14,75.76H335.89Zm-2.16-14-4.42-28.06L312.69,183.4Z"/><path class="cls-4" d="M386.07,195.7h32.59L416,210.81H362.44l2.48-14,40.57-46.62H373.12l2.7-15.11h53.52l-2.48,14Z"/><path class="cls-4" d="M477.58,197.42H449.31l-6.91,13.39H423.08l40.8-75.76h21.36l14,75.76H479.74Zm-2.16-14L471,155.34,456.54,183.4Z"/><path class="cls-4" d="M569.85,140.39A17.52,17.52,0,0,1,576,154.26a23.46,23.46,0,0,1-.43,4.64A26.83,26.83,0,0,1,569,172.39a28.87,28.87,0,0,1-14.14,8.42l12.19,30H546.21l-10.68-28.6h-4.42L526,210.81H507.58L521,135.05h31Q563.7,135.05,569.85,140.39Zm-13,17a6.65,6.65,0,0,0-2.21-5.34q-2.22-1.89-6.53-1.89H536.72l-3.35,19h11.44a12.12,12.12,0,0,0,8-2.48,11.56,11.56,0,0,0,3.83-7A22.09,22.09,0,0,0,556.9,157.39Z"/><text class="cls-5" transform="translate(229.72 124.6)">YOUR PROFIT</text><rect class="cls-6" x="302.59" y="219.35" width="267.05" height="21.32"/><text class="cls-7" transform="translate(429.6 234.84)">Buy Or Resell</text></g></g></svg>