<svg id="visual" viewBox="0 0 900 450" width="900" height="450" xmlns="http://www.w3.org/2000/svg" xmlns:xlink="http://www.w3.org/1999/xlink" version="1.1"><path d="M0 101L21.5 106.7C43 112.3 86 123.7 128.8 125.5C171.7 127.3 214.3 119.7 257.2 111.2C300 102.7 343 93.3 385.8 86.5C428.7 79.7 471.3 75.3 514.2 73.7C557 72 600 73 642.8 77C685.7 81 728.3 88 771.2 101.7C814 115.3 857 135.7 878.5 145.8L900 156L900 0L878.5 0C857 0 814 0 771.2 0C728.3 0 685.7 0 642.8 0C600 0 557 0 514.2 0C471.3 0 428.7 0 385.8 0C343 0 300 0 257.2 0C214.3 0 171.7 0 128.8 0C86 0 43 0 21.5 0L0 0Z" fill="#0066FF" stroke-linecap="round" stroke-linejoin="miter"></path></svg>